<svg width="64" height="64" viewBox="0 0 64 64" xmlns="http://www.w3.org/2000/svg">
  <defs>
    <linearGradient id="bg" x1="0%" y1="0%" x2="0%" y2="100%">
      <stop offset="0%" stop-color="#38bdf8" />
      <stop offset="100%" stop-color="#22d3ee" />
    </linearGradient>
  </defs>
  <rect width="64" height="64" rx="18" fill="#050c1f" />
  <rect x="6" y="6" width="52" height="52" rx="14" fill="url(#bg)" opacity="0.8" />
  <rect x="6" y="6" width="52" height="52" rx="14" fill="#050c1f" opacity="0.35" />
  <path d="M20 36c-2.5 0-4.5-2-4.5-4.5s2-4.5 4.5-4.5c.4 0 .9.1 1.3.2A7 7 0 0 1 28 22a7 7 0 0 1 6.7 4.9 5.5 5.5 0 0 1 1.7-.3 5.3 5.3 0 0 1 5.3 5.4C41.7 34.6 39.1 37 36 37H20Z" fill="#ffffff" fill-opacity="0.92" />
  <path d="M32 18l7 7h-5v8h-4v-8h-5l7-7Z" fill="#050c1f" />
  <rect x="24" y="37" width="16" height="4" rx="1" fill="#ffffff" fill-opacity="0.85" />
</svg>
